<svg width="18" height="12" viewBox="0 0 18 12" fill="none" xmlns="http://www.w3.org/2000/svg">
<path fill-rule="evenodd" clip-rule="evenodd" d="M1.66666 7.33341H2.66666C3.21894 7.33341 3.66666 7.78113 3.66666 8.33341V10.3334C3.66666 10.8857 3.21894 11.3334 2.66666 11.3334H1.66666C1.11437 11.3334 0.666656 10.8857 0.666656 10.3334V8.33341C0.666656 7.78113 1.11437 7.33341 1.66666 7.33341ZM6.33332 5.33341H7.33332C7.88561 5.33341 8.33332 5.78113 8.33332 6.33341V10.3334C8.33332 10.8857 7.88561 11.3334 7.33332 11.3334H6.33332C5.78104 11.3334 5.33332 10.8857 5.33332 10.3334V6.33341C5.33332 5.78113 5.78104 5.33341 6.33332 5.33341ZM11 3.00008H12C12.5523 3.00008 13 3.4478 13 4.00008V10.3334C13 10.8857 12.5523 11.3334 12 11.3334H11C10.4477 11.3334 9.99999 10.8857 9.99999 10.3334V4.00008C9.99999 3.4478 10.4477 3.00008 11 3.00008ZM15.6667 0.666748H16.6667C17.2189 0.666748 17.6667 1.11446 17.6667 1.66675V10.3334C17.6667 10.8857 17.2189 11.3334 16.6667 11.3334H15.6667C15.1144 11.3334 14.6667 10.8857 14.6667 10.3334V1.66675C14.6667 1.11446 15.1144 0.666748 15.6667 0.666748Z" fill="#060606"/>
</svg>
