<svg width="16" height="12" viewBox="0 0 16 12" fill="none" xmlns="http://www.w3.org/2000/svg">
<path fill-rule="evenodd" clip-rule="evenodd" d="M8.33033 2.60789C10.5462 2.60799 12.6774 3.45943 14.2833 4.98623C14.4043 5.1041 14.5976 5.10261 14.7167 4.98289L15.8727 3.81623C15.933 3.7555 15.9666 3.67325 15.9661 3.58767C15.9656 3.50209 15.931 3.42024 15.87 3.36023C11.6549 -0.67932 5.0051 -0.67932 0.789998 3.36023C0.728939 3.4202 0.694296 3.50202 0.693733 3.5876C0.69317 3.67318 0.726734 3.75546 0.786998 3.81623L1.94333 4.98289C2.06236 5.1028 2.25581 5.10428 2.37666 4.98623C3.98282 3.45933 6.11422 2.60789 8.33033 2.60789ZM8.33033 6.40356C9.54782 6.40349 10.7219 6.85602 11.6243 7.67323C11.7464 7.78921 11.9387 7.78669 12.0577 7.66756L13.2123 6.50089C13.2731 6.4397 13.3069 6.35668 13.306 6.27042C13.3051 6.18415 13.2697 6.10184 13.2077 6.04189C10.4595 3.48551 6.20353 3.48551 3.45533 6.04189C3.39325 6.10184 3.35784 6.18419 3.35702 6.27049C3.35621 6.35678 3.39006 6.43979 3.451 6.50089L4.60533 7.66756C4.72432 7.78669 4.9166 7.78921 5.03866 7.67323C5.94054 6.85656 7.11365 6.40406 8.33033 6.40356ZM10.5493 9.18789C10.6111 9.12729 10.6451 9.04389 10.6433 8.95738C10.6416 8.87087 10.6042 8.78893 10.54 8.73089C9.26443 7.65201 7.39624 7.65201 6.12067 8.73089C6.05644 8.78888 6.019 8.8708 6.01717 8.95731C6.01534 9.04381 6.04929 9.12724 6.111 9.18789L8.10866 11.2036C8.16722 11.2628 8.24704 11.2961 8.33033 11.2961C8.41362 11.2961 8.49345 11.2628 8.552 11.2036L10.5493 9.18789Z" fill="#060606"/>
</svg>
